<?xml version="1.0" encoding="utf-8"?>
<!-- Generator: Adobe Illustrator 19.2.1, SVG Export Plug-In . SVG Version: 6.00 Build 0)  -->
<svg version="1.1" id="Calque_1" xmlns="http://www.w3.org/2000/svg" xmlns:xlink="http://www.w3.org/1999/xlink" x="0px" y="0px"
	 viewBox="0 0 45.7 44.3" style="enable-background:new 0 0 45.7 44.3;" xml:space="preserve">
<style type="text/css">
	.st0{fill:#FFFFFF;}
</style>
<path class="st0" d="M45.6,3.1c0-2.1-1.3-3.7-3.2-4.3c0,0-0.1,0-0.1-0.1H3.5L3.4-1.1C1.3-0.5,0,1.1,0,3.3c0,12.6,0,25.4,0,38.1
	c0,2.6,1.8,4.6,4.4,4.6c12.3,0,24.5,0,36.9,0c0.4,0,0.9,0,1.3-0.1c1.9-0.6,3.1-2.2,3.1-4.4c0-12.5,0-25.1,0-37.6
	C45.6,3.3,45.6,3.1,45.6,3.1z M39.2,36.9c0,1.3-0.6,2.1-1.8,2.2c-4.4,0.4-8.8,0.7-13.2,0.7c-3.5,0-6.9-0.1-10.4-0.3
	c-1.9-0.1-3.8-0.3-5.9-0.4c-1-0.1-1.8-0.9-1.8-2.1c0-1.6,0-3.2,0-4.8c0-0.7,0.3-1,1-1c1.6,0,3.1,0,4.7,0c0.6,0,1.2,0.3,1.8,0.6
	c1.3,0.6,2.5,1.5,3.7,2.1c0.7,0.4,1.5,0.6,2.2,0.6c2.5,0,4.8,0,7.3,0c1,0,1.6-0.4,1.8-1.3c0.3-0.9-0.1-1.6-0.9-2.2
	c-6.5-3.8-12.9-7.5-19.4-11.3c-1.5-0.9-2.2-2.1-2.2-3.8c0-2.8,0-5.4,0-8.2c0-1.3,0.7-2.1,1.9-2.1c4.8-0.4,9.7-0.7,14.7-0.7
	c0.6,0,8.5,0.3,12.9,0.6c0.6,0,1.2,0.1,1.9,0.1c1,0.1,1.8,0.9,1.8,1.9c0,1.6,0,3.4,0,5c0,0.7-0.3,1-1,1c-1.6,0-3.2,0-4.8,0
	c-0.6,0-1.2-0.3-1.8-0.6c-1.2-0.6-2.5-1.3-3.7-2.1c-0.7-0.4-1.5-0.6-2.2-0.6c-2.4,0-4.8,0-7.2,0c-1,0-1.6,0.3-1.8,1.2
	c-0.3,0.9,0.1,1.8,0.9,2.2c6.5,3.8,12.9,7.5,19.4,11.3c1.5,0.9,2.2,2.2,2.2,4C39.2,31.5,39.2,34.1,39.2,36.9z"/>
</svg>
